<svg width="18" height="18" viewBox="0 0 18 18" fill="none" xmlns="http://www.w3.org/2000/svg">
<path d="M11.7841 12.5797L5.42012 6.2157C5.20269 5.99827 5.20269 5.63764 5.42012 5.42021C5.63756 5.20277 5.99818 5.20277 6.21562 5.42021L12.5796 11.7842C12.797 12.0016 12.797 12.3622 12.5796 12.5797C12.3621 12.7971 12.0015 12.7971 11.7841 12.5797Z" fill="#3860E2"/>
<path d="M5.42042 12.5797C5.20298 12.3622 5.20298 12.0016 5.42042 11.7842L11.7844 5.42021C12.0018 5.20277 12.3624 5.20277 12.5799 5.42021C12.7973 5.63764 12.7973 5.99827 12.5799 6.2157L6.21592 12.5797C5.99848 12.7971 5.63786 12.7971 5.42042 12.5797Z" fill="#3860E2"/>
</svg>
