<svg width="48" height="48" viewBox="0 0 48 48" fill="none" xmlns="http://www.w3.org/2000/svg">
<circle cx="24" cy="24" r="24" fill="white"/>
<path d="M27.6667 14.8333H20.3333C17.125 14.8333 15.75 16.6666 15.75 19.4166V28.5833C15.75 31.3333 17.125 33.1666 20.3333 33.1666H27.6667C30.875 33.1666 32.25 31.3333 32.25 28.5833V19.4166C32.25 16.6666 30.875 14.8333 27.6667 14.8333ZM20.3333 24.2291H24C24.3758 24.2291 24.6875 24.5408 24.6875 24.9166C24.6875 25.2924 24.3758 25.6041 24 25.6041H20.3333C19.9575 25.6041 19.6458 25.2924 19.6458 24.9166C19.6458 24.5408 19.9575 24.2291 20.3333 24.2291ZM27.6667 29.2708H20.3333C19.9575 29.2708 19.6458 28.9591 19.6458 28.5833C19.6458 28.2074 19.9575 27.8958 20.3333 27.8958H27.6667C28.0425 27.8958 28.3542 28.2074 28.3542 28.5833C28.3542 28.9591 28.0425 29.2708 27.6667 29.2708ZM29.9583 21.4791H28.125C26.7317 21.4791 25.6042 20.3516 25.6042 18.9583V17.1249C25.6042 16.7491 25.9158 16.4374 26.2917 16.4374C26.6675 16.4374 26.9792 16.7491 26.9792 17.1249V18.9583C26.9792 19.5908 27.4925 20.1041 28.125 20.1041H29.9583C30.3342 20.1041 30.6458 20.4158 30.6458 20.7916C30.6458 21.1674 30.3342 21.4791 29.9583 21.4791Z" fill="#E60019"/>
</svg>
