<svg width="29" height="28" viewBox="0 0 29 28" fill="none" xmlns="http://www.w3.org/2000/svg">
<path d="M8.24739 25.6667H20.4741C23.6941 25.6667 24.9774 23.695 25.1291 21.2917L25.7357 11.655C25.8991 9.13504 23.8924 7.00004 21.3607 7.00004C20.6491 7.00004 19.9957 6.59171 19.6691 5.96171L18.8291 4.27004C18.2924 3.20837 16.8924 2.33337 15.7024 2.33337H13.0307C11.8291 2.33337 10.4291 3.20837 9.89239 4.27004L9.05239 5.96171C8.72572 6.59171 8.07239 7.00004 7.36072 7.00004C4.82905 7.00004 2.82239 9.13504 2.98572 11.655L3.59239 21.2917C3.73239 23.695 5.02739 25.6667 8.24739 25.6667Z" stroke="white" stroke-width="1.5" stroke-linecap="round" stroke-linejoin="round"/>
<path d="M12.6107 9.33337H16.1107" stroke="white" stroke-width="1.5" stroke-linecap="round" stroke-linejoin="round"/>
<path d="M14.3607 21C16.4491 21 18.1524 19.2966 18.1524 17.2083C18.1524 15.12 16.4491 13.4166 14.3607 13.4166C12.2724 13.4166 10.5691 15.12 10.5691 17.2083C10.5691 19.2966 12.2724 21 14.3607 21Z" stroke="white" stroke-width="1.5" stroke-linecap="round" stroke-linejoin="round"/>
</svg>
